<svg xmlns="http://www.w3.org/2000/svg" viewBox="0 0 200 200" role="img" aria-label="Sir GPT robot">
  <defs>
    <linearGradient id="metal" x1="0%" y1="0%" x2="100%" y2="100%">
      <stop offset="0%" stop-color="#e2e8f0"/>
      <stop offset="100%" stop-color="#94a3b8"/>
    </linearGradient>
    <linearGradient id="visor" x1="0%" y1="0%" x2="0%" y2="100%">
      <stop offset="0%" stop-color="#38bdf8"/>
      <stop offset="100%" stop-color="#0284c7"/>
    </linearGradient>
  </defs>
  <rect width="200" height="200" fill="#f1f5f9"/>
  <ellipse cx="100" cy="178" rx="52" ry="10" fill="#cbd5e1"/>
  <rect x="62" y="118" width="76" height="58" rx="10" fill="url(#metal)" stroke="#64748b" stroke-width="3"/>
  <rect x="78" y="132" width="44" height="28" rx="4" fill="#334155"/>
  <circle cx="90" cy="146" r="4" fill="#22d3ee"/>
  <circle cx="110" cy="146" r="4" fill="#22d3ee"/>
  <rect x="94" y="108" width="12" height="14" rx="3" fill="#64748b"/>
  <rect x="34" y="126" width="24" height="12" rx="6" fill="url(#metal)" stroke="#64748b" stroke-width="2"/>
  <rect x="142" y="126" width="24" height="12" rx="6" fill="url(#metal)" stroke="#64748b" stroke-width="2"/>
  <rect x="48" y="52" width="104" height="72" rx="18" fill="url(#metal)" stroke="#64748b" stroke-width="3"/>
  <rect x="62" y="68" width="76" height="28" rx="8" fill="url(#visor)"/>
  <rect x="70" y="76" width="18" height="12" rx="2" fill="#e0f2fe" opacity="0.85"/>
  <circle cx="132" cy="82" r="5" fill="#fbbf24"/>
  <line x1="100" y1="52" x2="100" y2="28" stroke="#64748b" stroke-width="4" stroke-linecap="round"/>
  <circle cx="100" cy="22" r="8" fill="#fbbf24" stroke="#d97706" stroke-width="2"/>
  <path d="M58 104 Q48 118 52 132" fill="none" stroke="#64748b" stroke-width="3" stroke-linecap="round"/>
  <path d="M142 104 Q152 118 148 132" fill="none" stroke="#64748b" stroke-width="3" stroke-linecap="round"/>
</svg>
